HIERARCHY
ROOT Hips
{
	OFFSET -0.001795 -0.223333 0.028219
	CHANNELS 6 Xposition Yposition Zposition Zrotation Yrotation Xrotation 
	JOINT LeftUpLeg
	{
		OFFSET 0.069520 -0.091406 -0.006815
		CHANNELS 3 Zrotation Yrotation Xrotation
		JOINT LeftLeg
		{
			OFFSET 0.034277 -0.375199 -0.004496
			CHANNELS 3 Zrotation Yrotation Xrotation
			JOINT LeftFoot
			{
				OFFSET -0.013596 -0.397961 -0.043693
				CHANNELS 3 Zrotation Yrotation Xrotation
				JOINT LeftToe
				{
					OFFSET 0.026358 -0.055791 0.119288
					CHANNELS 3 Zrotation Yrotation Xrotation
					End Site
					{
						OFFSET 0.000000 0.000000 0.000000
					}
				}
			}
		}
	}
	JOINT RightUpLeg
	{
		OFFSET -0.067670 -0.090522 -0.004320
		CHANNELS 3 Zrotation Yrotation Xrotation
		JOINT RightLeg
		{
			OFFSET -0.038290 -0.382569 -0.008850
			CHANNELS 3 Zrotation Yrotation Xrotation
			JOINT RightFoot
			{
				OFFSET 0.015774 -0.398415 -0.042312
				CHANNELS 3 Zrotation Yrotation Xrotation
				JOINT RightToe
				{
					OFFSET -0.025372 -0.048144 0.123348
					CHANNELS 3 Zrotation Yrotation Xrotation
					End Site
					{
						OFFSET 0.000000 0.000000 0.000000
					}
				}
			}
		}
	}
	JOINT Spine
	{
		OFFSET -0.002533 0.108963 -0.026696
		CHANNELS 3 Zrotation Yrotation Xrotation
		JOINT Spine1
		{
			OFFSET 0.005487 0.135180 0.001092
			CHANNELS 3 Zrotation Yrotation Xrotation
			JOINT Spine2
			{
				OFFSET 0.001457 0.052922 0.025425
				CHANNELS 3 Zrotation Yrotation Xrotation
				JOINT Neck
				{
					OFFSET -0.002778 0.213870 -0.042857
					CHANNELS 3 Zrotation Yrotation Xrotation
					JOINT Head
					{
						OFFSET 0.005152 0.064970 0.051349
						CHANNELS 3 Zrotation Yrotation Xrotation
						End Site
						{
							OFFSET 0.000000 0.000000 0.000000
						}
					}
				}
				JOINT LeftShoulder
				{
					OFFSET 0.078845 0.121749 -0.034090
					CHANNELS 3 Zrotation Yrotation Xrotation
					JOINT LeftArm
					{
						OFFSET 0.090977 0.030469 -0.008868
						CHANNELS 3 Zrotation Yrotation Xrotation
						JOINT LeftForeArm
						{
							OFFSET 0.259612 -0.012772 -0.027456
							CHANNELS 3 Zrotation Yrotation Xrotation
							JOINT LeftHand
							{
								OFFSET 0.249234 0.008986 -0.001171
								CHANNELS 3 Zrotation Yrotation Xrotation
								End Site
								{
									OFFSET 0.000000 0.000000 0.000000
								}
							}
						}
					}
				}
				JOINT RightShoulder
				{
					OFFSET -0.081759 0.118833 -0.038615
					CHANNELS 3 Zrotation Yrotation Xrotation
					JOINT RightArm
					{
						OFFSET -0.096012 0.032551 -0.009143
						CHANNELS 3 Zrotation Yrotation Xrotation
						JOINT RightForeArm
						{
							OFFSET -0.253742 -0.013329 -0.021401
							CHANNELS 3 Zrotation Yrotation Xrotation
							JOINT RightHand
							{
								OFFSET -0.255298 0.007772 -0.005559
								CHANNELS 3 Zrotation Yrotation Xrotation
								End Site
								{
									OFFSET 0.000000 0.000000 0.000000
								}
							}
						}
					}
				}
			}
		}
	}
}
MOTION
Frames: 12
Frame Time: 0.050000
0.016490 0.926180 -0.032025 -1.004056 -6.387170 4.940570 -2.367613 -1.528446 -14.788425 -0.779891 -0.120701 20.175162 6.868022 13.826887 -9.433397 0.000000 0.000000 0.000000 5.538074 3.472254 -22.994983 -0.744072 2.235250 30.619347 -5.495412 -12.042435 -5.898524 0.000000 0.000000 0.000000 6.267926 -1.272660 12.730104 -0.144832 0.083923 -1.045673 -5.528316 4.831738 9.592541 7.940017 -1.966873 -26.121557 0.000000 0.000000 0.000000 -19.953244 -9.675548 2.910859 -47.248219 -0.548799 -5.579742 -5.325111 -27.442515 2.275222 0.000000 0.000000 0.000000 18.283415 1.646947 -0.090211 55.376994 -5.728805 -8.404132 10.683039 38.543869 5.312107 0.000000 0.000000 0.000000 
0.018948 0.913753 -0.032877 -1.160900 -5.534911 6.872072 -2.584062 -2.072705 -20.218985 -0.425056 -0.296932 26.395418 7.281686 14.373015 -13.046082 0.000000 0.000000 0.000000 4.907920 4.152531 -27.808353 0.667933 1.970008 35.497358 -6.372552 -14.373717 -7.644246 0.000000 0.000000 0.000000 6.315909 -1.621133 16.167141 0.127598 -0.026784 -1.857226 -5.550047 4.875684 9.608967 8.708637 -1.862144 -28.861667 0.000000 0.000000 0.000000 -20.759900 -9.674664 2.756062 -46.836513 -0.117938 -5.599295 -4.420211 -26.549035 1.964964 0.000000 0.000000 0.000000 17.985080 1.038923 -0.274668 56.275936 -5.578064 -8.425283 9.388853 38.993584 5.002927 0.000000 0.000000 0.000000 
0.022000 0.898908 -0.031569 -1.175655 -5.211338 9.357287 -2.364621 -2.611115 -26.705355 -0.899021 -0.130714 33.586070 8.284235 16.953508 -14.532630 0.000000 0.000000 0.000000 3.690893 4.900519 -33.964452 2.134502 1.635281 41.286274 -6.949320 -16.206371 -8.825097 0.000000 0.000000 0.000000 6.129924 -1.841963 18.527966 0.677240 -0.262170 -1.938643 -5.935200 4.717289 8.662047 8.299734 -1.280478 -31.146819 0.000000 0.000000 0.000000 -21.982461 -10.299127 3.036973 -45.387647 1.371418 -5.794379 -2.256503 -25.725351 1.404633 0.000000 0.000000 0.000000 19.069234 1.345779 -0.138608 55.798125 -5.503260 -8.195855 8.311286 38.408595 4.517565 0.000000 0.000000 0.000000 
0.025316 0.881105 -0.025013 -1.338789 -4.028242 11.368097 -2.084245 -3.177174 -33.198090 -1.375687 -0.051748 42.706652 8.883920 18.270946 -16.047248 0.000000 0.000000 0.000000 2.729896 5.399388 -39.368251 4.606445 0.399191 48.338140 -7.911070 -19.326137 -11.893432 0.000000 0.000000 0.000000 5.503045 -2.032317 21.602169 1.115025 -0.432854 -2.417590 -6.085003 5.421360 8.105866 9.247999 -1.120515 -33.738618 0.000000 0.000000 0.000000 -21.380079 -11.834089 3.496711 -46.481080 0.428754 -5.418961 -0.456664 -26.268369 0.955851 0.000000 0.000000 0.000000 20.960282 2.149604 0.666129 56.126357 -3.898641 -7.509597 4.091682 37.571122 3.156006 0.000000 0.000000 0.000000 
0.027749 0.859894 -0.007990 -1.902313 -3.618638 12.530249 -1.598805 -3.355464 -36.582986 -2.064413 0.311852 49.418864 9.726816 20.697280 -18.434995 0.000000 0.000000 0.000000 2.234406 5.658344 -42.290285 7.521444 -1.405963 54.333516 -8.561607 -21.790954 -13.881525 0.000000 0.000000 0.000000 5.340324 -2.155058 23.166808 1.688190 -0.650990 -3.071324 -6.176614 6.872593 7.386187 9.821996 -1.085281 -34.064972 0.000000 0.000000 0.000000 -24.028134 -13.005398 3.527622 -44.337993 1.181321 -5.115734 -2.186973 -26.268351 1.293118 0.000000 0.000000 0.000000 26.103350 2.671477 1.570112 52.707381 -1.339642 -6.231405 -0.675436 36.732453 1.724919 0.000000 0.000000 0.000000 
0.029030 0.843056 0.022315 -1.808616 -3.102977 13.146713 -1.358491 -3.406832 -37.369200 -2.607352 0.607752 54.673523 10.143998 21.809184 -18.169296 0.000000 0.000000 0.000000 0.936664 5.451212 -44.419345 9.326553 -2.964872 60.411183 -7.906826 -19.541510 -14.536035 0.000000 0.000000 0.000000 5.170295 -2.105292 22.603429 2.452468 -0.999475 -2.333344 -6.410420 7.342689 6.865433 10.684304 -0.954116 -36.477199 0.000000 0.000000 0.000000 -27.347751 -13.646746 3.447671 -41.659840 -2.126174 -3.462405 -1.224335 -26.862216 1.081871 0.000000 0.000000 0.000000 26.380250 4.077545 2.825159 51.878761 3.174379 -4.374678 -4.407778 37.383739 0.689691 0.000000 0.000000 0.000000 
0.029755 0.841037 0.067305 -2.452978 -3.391123 12.652140 -0.556710 -2.770131 -32.650224 -2.474528 0.648413 52.695303 11.329829 25.544293 -17.940364 0.000000 0.000000 0.000000 2.146163 5.383340 -40.908127 9.905517 -3.210803 60.369919 -8.513366 -21.653593 -15.611724 0.000000 0.000000 0.000000 5.210847 -1.939909 20.618090 2.822300 -1.121587 -3.318411 -5.690182 6.497965 9.027715 8.007664 0.116472 -38.533000 0.000000 0.000000 0.000000 -23.783792 -12.963866 3.701062 -45.353812 -9.079634 -1.787639 1.132831 -30.374650 0.642588 0.000000 0.000000 0.000000 21.167345 6.251794 3.582557 53.249863 9.942604 -1.504342 -7.663680 41.725303 -0.300853 0.000000 0.000000 0.000000 
0.029370 0.868676 0.134469 -3.210591 -2.810999 11.143346 0.661277 -1.825303 -22.815098 -1.841103 0.094286 45.023042 10.719781 22.840264 -9.940478 0.000000 0.000000 0.000000 4.091070 4.593505 -32.829678 8.186648 -2.011596 57.100597 -7.465857 -18.107978 -8.767894 0.000000 0.000000 0.000000 5.727726 -1.580973 14.930917 3.511910 -1.433573 -3.130428 -5.141950 4.457664 10.334021 6.039386 0.551308 -38.287359 0.000000 0.000000 0.000000 -18.086596 -6.711995 1.098265 -50.479427 -12.405193 -1.129085 -0.761343 -44.349418 1.898424 0.000000 0.000000 0.000000 13.536995 5.416036 2.301405 56.563002 11.473571 -0.531339 -5.506495 47.953577 0.418381 0.000000 0.000000 0.000000 
0.025233 0.938331 0.229608 -2.887575 -0.630600 9.653372 0.897501 -0.871038 -10.206276 -0.055956 -0.928941 30.176367 6.243158 14.223384 8.473965 0.000000 0.000000 0.000000 4.938388 2.269840 -17.320343 6.041743 -1.091460 41.104503 -4.495912 -11.798722 1.881646 0.000000 0.000000 0.000000 7.246580 -0.916315 5.838110 2.094385 -0.759392 -4.651531 -4.555766 4.736921 12.813178 5.249812 0.435489 -32.951309 0.000000 0.000000 0.000000 -12.015144 -5.556975 0.796998 -54.867163 -6.503675 -4.223807 -24.670545 -63.487609 17.408047 0.000000 0.000000 0.000000 5.193321 -2.684632 -1.159858 63.307160 6.905504 -2.482691 8.533702 57.895437 8.835893 0.000000 0.000000 0.000000 
0.018980 1.037165 0.336003 -1.915941 2.984422 8.949394 3.405690 -0.148594 -0.159235 -0.496207 -0.443666 14.307224 1.888363 11.516389 28.623039 0.000000 0.000000 0.000000 4.856691 0.355550 -3.899978 2.274529 0.019319 22.613951 -0.071309 -8.030567 24.769599 0.000000 0.000000 0.000000 3.890444 0.117244 -3.776840 3.465671 -1.215641 -5.908825 -3.853785 5.721728 12.260730 9.363595 -2.717374 -22.231412 0.000000 0.000000 0.000000 -10.070726 -2.302513 -0.902841 -53.939379 -1.051620 -6.621170 -58.800189 -55.345032 33.304803 0.000000 0.000000 0.000000 3.623342 -6.918836 -2.715586 61.903453 -2.624470 -6.780033 27.847799 56.795102 19.849187 0.000000 0.000000 0.000000 
0.015435 1.142876 0.423269 -1.103407 3.706297 6.547466 2.705742 -0.056108 0.643497 -0.830282 -0.496404 16.919259 3.032186 14.226550 38.477553 0.000000 0.000000 0.000000 2.524866 -0.273167 1.481661 0.998341 0.314952 18.967558 8.815631 -1.705024 43.294960 0.000000 0.000000 0.000000 1.876640 0.268820 -6.115039 5.054979 -1.910160 -5.478730 -5.086649 7.494571 10.829519 11.083601 -4.022539 -19.231052 0.000000 0.000000 0.000000 -10.560501 0.173131 -2.409603 -54.090948 3.023210 -8.408288 -59.022340 -44.608598 25.324653 0.000000 0.000000 0.000000 5.426702 -7.616273 -3.002383 62.111017 -7.150666 -8.732127 23.899390 53.491459 16.639668 0.000000 0.000000 0.000000 
0.015506 1.222926 0.485548 -1.460090 2.831085 4.257206 0.912838 -0.285839 -3.197736 -2.863764 -0.168248 26.314943 6.224063 16.738089 31.974125 0.000000 0.000000 0.000000 1.905055 0.256878 -2.637806 3.883366 -0.592824 30.839635 10.643880 0.882498 41.154354 0.000000 0.000000 0.000000 1.723105 0.201668 -4.501334 2.924920 -0.944677 -6.956135 -3.363523 7.327264 11.178642 12.752128 -6.252290 -15.052270 0.000000 0.000000 0.000000 -11.545969 -0.692648 -2.095489 -54.041062 6.414443 -9.905559 -49.725551 -40.350931 19.093234 0.000000 0.000000 0.000000 8.378237 -6.901166 -2.831273 61.701577 -6.174483 -8.656490 19.183257 47.048232 11.867288 0.000000 0.000000 0.000000 
